<?xml version="1.0" encoding="UTF-8" standalone="no"?>
<!DOCTYPE svg PUBLIC "-//W3C//DTD SVG 20010904//EN"
              "http://www.w3.org/TR/2001/REC-SVG-20010904/DTD/svg10.dtd">

<!-- copyright Joanna Piper Morgan 2023 -->

<svg xmlns="http://www.w3.org/2000/svg"
     width="2in" height="2in"
     viewBox="0 0 1000 1000"
     style="background-color:black">
  <path id="body"
        fill="#e38a0e" stroke="#e38a0e" stroke-width="0"
        d="M 198.00,355.00
           C 197.40,351.82 196.72,347.98 195.52,345.00
             191.93,336.05 180.39,326.51 180.01,310.00
             179.97,307.99 179.91,304.86 180.60,303.00
             182.07,299.01 192.49,289.51 196.00,286.00
             204.94,277.08 216.98,269.02 230.00,269.00
             230.00,269.00 296.00,269.00 296.00,269.00
             305.25,269.13 310.36,273.24 318.00,277.80
             318.00,277.80 336.00,289.58 336.00,289.58
             338.67,291.37 340.40,292.43 342.44,295.04
             348.39,302.65 345.87,311.78 343.07,320.00
             342.18,322.63 341.78,324.52 340.37,327.00
             340.37,327.00 331.26,340.00 331.26,340.00
             328.35,344.87 328.30,347.03 326.73,350.00
             324.29,354.59 319.79,357.30 319.79,363.00
             319.79,370.38 325.68,377.77 332.00,381.01
             343.40,386.85 357.71,388.20 370.00,391.35
             375.09,392.65 381.40,396.25 387.00,395.77
             391.22,395.40 393.03,392.24 395.15,389.00
             398.40,384.03 404.13,372.61 406.32,367.00
             406.32,367.00 416.58,346.00 416.58,346.00
             416.58,346.00 434.75,308.00 434.75,308.00
             437.89,303.43 443.50,297.78 448.00,294.49
             458.43,286.87 463.65,287.15 475.00,284.08
             475.00,284.08 487.55,281.45 487.55,281.45
             487.55,281.45 498.27,279.09 498.27,279.09
             498.27,279.09 510.00,276.80 510.00,276.80
             510.00,276.80 541.00,270.91 541.00,270.91
             541.00,270.91 551.00,268.46 551.00,268.46
             551.00,268.46 587.18,262.09 587.18,262.09
             587.18,262.09 623.00,254.51 623.00,254.51
             623.00,254.51 635.36,252.09 635.36,252.09
             635.36,252.09 645.00,250.31 645.00,250.31
             645.00,250.31 664.55,246.82 664.55,246.82
             664.55,246.82 681.00,243.08 681.00,243.08
             681.00,243.08 691.50,240.75 691.50,240.75
             691.50,240.75 699.00,239.41 699.00,239.41
             699.00,239.41 716.09,236.18 716.09,236.18
             716.09,236.18 731.00,233.37 731.00,233.37
             731.00,233.37 772.00,225.39 772.00,225.39
             772.00,225.39 786.45,222.64 786.45,222.64
             786.45,222.64 797.00,220.35 797.00,220.35
             801.32,219.36 815.74,214.62 818.82,218.57
             822.08,222.74 815.89,234.91 813.74,239.00
             805.03,255.56 786.29,263.79 769.00,267.66
             769.00,267.66 759.09,269.09 759.09,269.09
             759.09,269.09 741.00,271.28 741.00,271.28
             741.00,271.28 725.00,273.72 725.00,273.72
             725.00,273.72 705.00,276.08 705.00,276.08
             705.00,276.08 686.00,279.71 686.00,279.71
             686.00,279.71 669.00,281.29 669.00,281.29
             669.00,281.29 655.82,283.00 655.82,283.00
             655.82,283.00 638.00,285.29 638.00,285.29
             638.00,285.29 565.00,296.92 565.00,296.92
             565.00,296.92 547.00,299.43 547.00,299.43
             547.00,299.43 510.82,305.73 510.82,305.73
             500.77,307.65 491.40,308.19 481.00,312.45
             462.03,320.23 457.16,340.79 450.63,358.00
             450.63,358.00 443.60,375.00 443.60,375.00
             440.66,382.29 432.46,397.53 445.00,400.90
             446.47,401.06 449.40,401.00 451.00,400.90
             451.00,400.90 536.00,400.90 536.00,400.90
             536.00,400.90 546.00,401.91 546.00,401.91
             568.59,403.46 577.56,403.70 599.00,412.20
             602.57,413.62 611.03,417.28 614.00,419.25
             626.47,427.49 640.78,447.89 645.91,462.00
             645.91,462.00 656.08,491.00 656.08,491.00
             656.08,491.00 659.34,509.00 659.34,509.00
             661.21,518.29 658.54,524.92 666.18,532.83
             677.61,544.66 691.87,554.25 709.00,550.32
             713.00,549.40 720.26,545.86 724.00,543.84
             724.00,543.84 748.00,531.11 748.00,531.11
             751.62,529.36 756.75,527.12 760.85,528.31
             764.39,529.34 763.82,532.44 762.26,535.00
             760.11,538.51 755.52,541.63 752.00,543.71
             752.00,543.71 742.00,548.87 742.00,548.87
             728.24,556.71 718.52,563.36 702.00,564.68
             698.78,564.93 694.25,564.00 691.00,563.39
             677.14,560.79 673.90,559.11 663.00,550.08
             659.98,547.58 653.46,541.05 649.72,545.35
             646.76,548.52 649.42,556.91 649.72,561.00
             649.72,561.00 652.43,590.00 652.43,590.00
             652.43,590.00 656.91,607.00 656.91,607.00
             656.91,607.00 660.08,618.00 660.08,618.00
             660.08,618.00 661.61,627.00 661.61,627.00
             661.61,627.00 667.90,643.00 667.90,643.00
             673.14,654.45 678.98,656.36 679.00,670.00
             679.03,690.14 680.41,703.19 683.27,723.00
             684.32,730.29 686.15,737.61 685.99,745.00
             685.99,745.00 685.04,755.00 685.04,755.00
             684.87,758.92 685.76,764.53 682.57,767.42
             678.95,770.68 667.85,770.02 663.00,769.85
             663.00,769.85 657.00,769.85 657.00,769.85
             642.91,767.41 654.24,752.79 658.99,747.00
             660.33,745.36 661.59,743.93 662.55,742.00
             663.93,739.23 663.96,737.00 664.00,734.00
             664.00,734.00 664.00,711.00 664.00,711.00
             663.95,706.91 661.72,690.60 660.45,687.00
             660.45,687.00 654.44,672.00 654.44,672.00
             654.44,672.00 651.68,663.00 651.68,663.00
             648.56,654.93 645.50,650.32 641.52,643.00
             641.52,643.00 637.36,634.00 637.36,634.00
             637.36,634.00 624.23,613.00 624.23,613.00
             624.23,613.00 613.90,599.00 613.90,599.00
             611.84,595.28 610.07,588.91 607.59,586.15
             604.99,583.27 601.29,582.33 599.02,586.15
             596.87,589.75 598.57,595.36 599.78,599.00
             603.29,609.64 602.85,613.39 609.70,624.00
             609.70,624.00 624.43,645.00 624.43,645.00
             629.63,652.27 633.34,655.52 632.96,665.00
             632.77,669.84 631.14,674.27 630.26,679.00
             630.26,679.00 624.52,708.00 624.52,708.00
             624.52,708.00 620.78,719.00 620.78,719.00
             620.78,719.00 619.67,727.00 619.67,727.00
             619.67,727.00 614.73,745.00 614.73,745.00
             611.54,752.03 606.19,753.91 599.00,754.00
             599.00,754.00 582.00,754.00 582.00,754.00
             569.99,753.98 569.90,748.79 578.00,741.04
             586.97,732.47 595.00,736.93 601.96,724.00
             604.28,719.67 607.11,709.00 607.87,704.00
             610.48,686.62 607.64,677.52 600.08,662.00
             597.61,656.93 594.94,651.47 591.47,647.00
             591.47,647.00 573.17,627.00 573.17,627.00
             573.17,627.00 563.82,615.00 563.82,615.00
             563.82,615.00 545.42,593.00 545.42,593.00
             541.63,587.04 536.09,568.39 536.00,561.00
             535.94,555.91 536.37,540.76 531.77,538.03
             528.67,536.18 524.99,537.96 522.00,539.09
             522.00,539.09 511.00,543.87 511.00,543.87
             511.00,543.87 502.00,546.58 502.00,546.58
             502.00,546.58 454.00,563.05 454.00,563.05
             454.00,563.05 434.00,571.17 434.00,571.17
             434.00,571.17 416.00,576.93 416.00,576.93
             416.00,576.93 397.00,584.22 397.00,584.22
             393.74,585.35 390.06,585.42 387.02,587.14
             381.52,590.24 379.76,597.08 380.09,603.00
             380.09,603.00 383.00,628.00 383.00,628.00
             383.00,628.00 383.00,641.00 383.00,641.00
             383.00,641.00 384.00,656.00 384.00,656.00
             384.00,656.00 385.17,682.00 385.17,682.00
             386.15,691.12 386.98,687.93 387.00,700.00
             387.00,700.00 388.88,718.00 388.88,718.00
             388.39,724.65 384.41,725.83 382.16,734.00
             380.57,739.79 380.03,755.51 380.00,762.00
             379.97,767.71 378.38,777.76 372.89,780.83
             370.80,782.00 368.32,781.96 366.00,782.00
             366.00,782.00 336.12,781.88 336.12,781.88
             328.21,781.78 333.88,773.06 334.63,772.00
             345.44,754.94 351.25,759.56 357.38,745.00
             361.37,735.54 362.03,722.16 360.71,712.00
             360.71,712.00 358.10,698.00 358.10,698.00
             358.10,698.00 358.10,687.00 358.10,687.00
             358.10,687.00 356.00,668.00 356.00,668.00
             356.00,668.00 356.00,660.00 356.00,660.00
             356.00,660.00 352.30,645.00 352.30,645.00
             352.30,645.00 350.71,633.00 350.71,633.00
             350.71,633.00 347.66,622.00 347.66,622.00
             347.66,622.00 345.26,610.00 345.26,610.00
             344.34,606.72 342.75,598.88 338.38,599.06
             332.25,598.56 332.21,607.23 332.04,611.00
             332.04,611.00 331.00,634.00 331.00,634.00
             331.00,634.00 329.00,657.00 329.00,657.00
             329.00,657.00 328.00,680.00 328.00,680.00
             328.00,680.00 328.00,709.00 328.00,709.00
             328.00,711.83 328.22,715.15 326.87,717.71
             324.80,721.63 318.16,724.86 315.22,734.00
             315.22,734.00 312.91,744.00 312.91,744.00
             312.91,744.00 307.39,757.00 307.39,757.00
             306.12,760.56 304.38,764.56 302.62,769.06
             302.62,774.25 277.52,772.91 270.50,772.88
             268.37,772.86 268.50,772.62 266.56,771.25
             263.56,767.56 263.65,766.92 264.24,763.00
             264.60,760.59 265.64,758.86 267.23,757.04
             276.30,746.63 283.55,755.87 291.56,745.31
             296.04,739.42 295.97,734.68 297.73,728.00
             301.81,712.53 300.98,715.87 301.00,700.00
             301.00,700.00 302.00,684.00 302.00,684.00
             302.00,684.00 302.00,655.00 302.00,655.00
             302.00,655.00 300.96,643.00 300.96,643.00
             300.96,643.00 300.96,634.00 300.96,634.00
             300.96,634.00 297.43,617.00 297.43,617.00
             296.14,608.07 295.54,599.67 292.45,591.00
             292.45,591.00 281.73,564.00 281.73,564.00
             272.94,546.14 269.46,542.14 263.58,522.00
             261.01,513.22 260.02,513.66 260.00,504.00
             260.00,504.00 260.00,495.00 260.00,495.00
             259.93,489.51 258.88,485.34 258.13,480.00
             258.13,480.00 255.96,461.00 255.96,461.00
             253.78,452.15 247.74,439.48 244.03,431.00
             244.03,431.00 236.66,408.00 236.66,408.00
             236.66,408.00 220.34,362.00 220.34,362.00
             220.34,362.00 216.20,352.00 216.20,352.00
             213.57,345.31 214.93,340.73 206.00,340.00
             205.14,346.53 205.26,352.61 198.00,355.00 Z
             M 226.00,220.00"/>
  <path id="crown"
        fill="#e38a0e" stroke="#e38a0e" stroke-width="0"
        d="M 226.00,220.00
           C 230.82,223.10 229.52,228.67 232.96,231.70
             234.23,232.82 236.33,231.89 238.00,231.89
             243.92,231.89 246.04,224.54 248.00,220.00
             248.00,220.00 251.00,220.00 251.00,220.00
             252.93,224.49 255.58,233.14 261.90,231.67
             266.05,230.70 268.46,223.57 270.00,220.00
             270.00,220.00 273.00,220.00 273.00,220.00
             274.96,224.54 277.08,231.89 283.00,231.89
             284.67,231.89 287.16,230.43 288.43,229.30
             291.87,226.27 290.18,223.10 295.00,220.00
             295.00,220.00 295.00,256.00 295.00,256.00
             295.00,256.00 226.00,256.00 226.00,256.00
             226.00,256.00 226.00,220.00 226.00,220.00 Z
           M 775.00,297.43"/>
  <path id="wings"
        fill="#e38a0e" stroke="#e38a0e" stroke-width="0"
        d="M 775.00,297.43
           C 785.85,296.24 785.44,303.58 781.02,311.00
             775.46,320.35 768.26,325.04 758.00,327.85
             749.19,330.26 740.57,331.47 731.45,332.18
             731.45,332.18 719.00,333.00 719.00,333.00
             719.00,333.00 707.00,334.00 707.00,334.00
             707.00,334.00 690.00,335.00 690.00,335.00
             690.00,335.00 665.55,336.55 665.55,336.55
             665.55,336.55 640.00,338.00 640.00,338.00
             640.00,338.00 615.00,339.00 615.00,339.00
             615.00,339.00 599.00,340.00 599.00,340.00
             599.00,340.00 567.00,342.00 567.00,342.00
             567.00,342.00 529.64,344.09 529.64,344.09
             529.64,344.09 498.00,346.28 498.00,346.28
             495.09,346.63 484.83,348.52 483.74,344.69
             482.25,339.43 492.88,333.56 497.00,332.51
             497.00,332.51 541.27,326.73 541.27,326.73
             541.27,326.73 571.00,322.06 571.00,322.06
             571.00,322.06 586.18,320.73 586.18,320.73
             586.18,320.73 597.00,319.28 597.00,319.28
             597.00,319.28 628.00,315.72 628.00,315.72
             628.00,315.72 644.00,313.28 644.00,313.28
             644.00,313.28 661.00,311.58 661.00,311.58
             661.00,311.58 677.45,309.73 677.45,309.73
             677.45,309.73 694.00,307.83 694.00,307.83
             694.00,307.83 713.00,305.17 713.00,305.17
             713.00,305.17 775.00,297.43 775.00,297.43 Z
           M 718.00,360.42
           C 721.53,359.99 732.96,359.05 735.39,361.60
             739.62,366.05 729.37,375.84 726.00,378.20
             719.51,382.73 707.80,383.99 700.00,384.00
             700.00,384.00 535.00,384.00 535.00,384.00
             535.00,384.00 484.00,385.00 484.00,385.00
             484.00,385.00 479.00,385.00 479.00,385.00
             476.82,385.00 473.15,385.21 471.31,383.98
             466.84,380.98 470.83,374.80 474.04,372.59
             477.64,370.13 484.71,370.01 489.00,370.00
             489.00,370.00 504.50,369.75 504.50,369.75
             504.50,369.75 523.00,369.04 523.00,369.04
             523.00,369.04 537.75,368.50 537.75,368.50
             537.75,368.50 561.50,367.50 561.50,367.50
             561.50,367.50 580.00,367.00 580.00,367.00
             580.00,367.00 604.75,365.25 604.75,365.25
             604.75,365.25 626.00,364.00 626.00,364.00
             626.00,364.00 639.75,363.25 639.75,363.25
             639.75,363.25 656.75,363.50 656.75,363.50
             656.75,363.50 673.00,363.00 673.00,363.00
             673.00,363.00 690.00,362.00 690.00,362.00
             690.00,362.00 718.00,360.42 718.00,360.42 Z
           M 738.45,331.45" />
</svg>
