<?xml version="1.0" standalone="no"?>
<!DOCTYPE svg PUBLIC "-//W3C//DTD SVG 20010904//EN"
 "http://www.w3.org/TR/2001/REC-SVG-20010904/DTD/svg10.dtd">
<svg version="1.0" xmlns="http://www.w3.org/2000/svg"
 width="780.000000pt" height="780.000000pt" viewBox="0 0 780.000000 780.000000"
 preserveAspectRatio="xMidYMid meet">
<metadata>
Created by potrace 1.14, written by Peter Selinger 2001-2017
</metadata>
<g transform="translate(0.000000,780.000000) scale(0.100000,-0.100000)"
fill="#000000" stroke="none">
<path d="M0 3900 l0 -3900 3900 0 3900 0 0 3900 0 3900 -3900 0 -3900 0 0
-3900z m1716 2482 c3 -20 17 -54 30 -74 34 -52 73 -53 105 -2 12 20 25 50 28
68 9 41 33 40 44 -4 5 -19 20 -50 33 -67 36 -48 70 -44 112 13 17 24 32 51 32
59 0 7 5 17 10 20 7 4 10 -51 10 -159 0 -153 -1 -166 -19 -176 -30 -16 -582
-14 -604 3 -13 9 -17 34 -21 122 -2 61 -1 132 2 158 l5 48 19 -33 c32 -52 70
-88 94 -88 25 0 67 60 80 115 13 58 29 57 40 -3z m5142 13 c4 -38 -39 -154
-78 -210 -97 -141 -284 -233 -520 -256 -52 -5 -135 -15 -185 -23 -49 -8 -124
-18 -165 -21 -41 -4 -102 -13 -135 -20 -33 -7 -96 -16 -140 -20 -44 -4 -114
-13 -155 -20 -41 -7 -100 -16 -130 -19 -70 -8 -299 -42 -415 -61 -49 -8 -135
-22 -190 -30 -199 -29 -690 -112 -876 -149 -80 -16 -141 -49 -190 -103 -31
-34 -69 -96 -69 -113 0 -6 -6 -26 -14 -43 -15 -32 -52 -128 -86 -222 -10 -27
-37 -99 -59 -159 -23 -60 -41 -118 -39 -130 l3 -21 505 -1 c333 0 527 -4 570
-11 36 -7 103 -18 150 -26 291 -50 485 -188 609 -434 82 -163 171 -464 171
-578 0 -78 19 -116 89 -185 37 -36 89 -79 116 -95 47 -27 57 -29 155 -30 82 0
112 4 135 17 17 10 41 23 55 28 14 6 43 21 65 34 85 51 224 116 262 122 55 9
73 -13 46 -58 -22 -38 -61 -66 -198 -145 -154 -88 -209 -112 -298 -130 -70
-14 -92 -14 -157 -4 -113 19 -221 74 -297 151 -41 42 -68 38 -67 -10 8 -266
29 -426 70 -550 9 -25 19 -66 24 -92 8 -46 43 -148 74 -218 8 -19 33 -62 56
-95 l40 -60 0 -165 c0 -93 6 -204 14 -255 8 -49 17 -119 21 -155 3 -36 13 -87
22 -114 14 -44 14 -55 -1 -120 -9 -39 -17 -91 -18 -115 -3 -40 -6 -46 -33 -53
-38 -10 -209 -8 -252 4 -42 11 -52 42 -24 78 11 15 23 39 26 53 4 13 21 39 39
58 46 47 56 86 56 209 0 180 -36 393 -75 440 -7 8 -16 31 -20 50 -21 97 -240
492 -323 581 -13 13 -42 59 -65 101 -33 62 -47 78 -64 78 -28 0 -29 -16 -9
-115 24 -116 49 -171 137 -295 18 -25 61 -88 96 -140 70 -105 76 -130 48 -230
-8 -30 -24 -95 -34 -145 -39 -181 -44 -200 -57 -226 -7 -14 -16 -50 -20 -80
-4 -30 -13 -70 -21 -89 -8 -19 -19 -57 -24 -84 -18 -96 -58 -116 -236 -116
-134 0 -173 11 -173 47 0 19 103 123 122 123 7 0 35 9 63 21 63 26 87 60 121
170 22 74 25 98 22 209 l-3 125 -63 127 c-53 107 -75 140 -145 215 -45 48
-119 134 -165 190 -45 56 -105 128 -133 160 -50 56 -70 92 -111 198 -34 88
-37 106 -39 219 0 61 -6 117 -11 124 -14 17 -71 15 -116 -4 -45 -20 -239 -90
-302 -109 -91 -28 -146 -47 -178 -61 -18 -8 -50 -18 -70 -23 -20 -6 -66 -21
-102 -34 -36 -14 -81 -31 -100 -37 -19 -7 -55 -21 -80 -30 -46 -18 -73 -28
-272 -100 -151 -54 -144 -37 -129 -334 18 -331 46 -760 57 -847 5 -39 2 -50
-21 -77 -37 -44 -45 -82 -54 -252 -9 -168 -29 -246 -68 -261 -27 -10 -352 -13
-377 -3 -9 3 -16 13 -16 21 0 28 88 150 136 189 74 60 91 83 113 161 25 85 28
229 7 306 -8 29 -17 122 -21 207 -6 162 -39 358 -89 530 -13 47 -27 105 -31
130 -10 59 -21 80 -45 80 -24 0 -27 -13 -35 -135 -4 -55 -16 -201 -27 -325
-11 -124 -21 -307 -23 -408 -2 -159 -5 -185 -20 -202 -10 -11 -24 -20 -32 -20
-7 0 -19 -12 -25 -27 -7 -16 -20 -39 -30 -52 -10 -13 -18 -39 -18 -57 0 -19
-18 -76 -40 -128 -22 -51 -40 -103 -40 -115 0 -12 -11 -33 -25 -46 -21 -22
-33 -25 -107 -26 -142 -2 -223 3 -235 13 -15 12 -17 76 -4 111 15 39 68 70
134 78 74 9 96 29 130 117 52 137 57 190 57 544 0 281 -3 346 -20 455 -28 175
-58 309 -75 343 -8 16 -15 35 -15 42 0 7 -9 30 -20 51 -11 20 -20 47 -20 59 0
13 -15 48 -34 78 -119 191 -184 380 -197 570 -18 261 -27 346 -41 380 -9 19
-21 51 -28 70 -34 96 -42 117 -55 145 -13 29 -99 270 -185 520 -23 66 -47 134
-54 150 -7 17 -20 55 -29 86 -17 56 -47 96 -65 85 -5 -3 -13 -23 -17 -43 -8
-48 -52 -98 -72 -82 -7 6 -13 20 -13 31 0 27 -26 81 -71 151 -21 31 -48 78
-60 105 -25 55 -35 155 -21 194 11 26 97 99 253 213 143 105 91 95 505 95 323
0 368 -2 392 -17 15 -9 56 -35 92 -58 36 -23 94 -60 130 -83 100 -63 106 -68
130 -116 39 -82 9 -201 -90 -349 -28 -41 -56 -91 -62 -109 -6 -18 -22 -47 -35
-64 -40 -53 -24 -136 34 -185 48 -41 426 -151 522 -153 l44 -1 66 131 c36 72
86 174 110 225 164 348 212 438 269 494 54 54 175 125 211 125 10 0 51 9 92
19 41 10 97 22 124 26 28 3 70 12 95 20 25 7 65 17 90 20 25 4 72 13 105 20
33 8 119 25 190 39 293 55 414 78 480 91 173 33 296 58 377 76 48 10 96 19
108 19 12 0 59 9 104 19 110 26 263 59 306 66 19 3 62 12 95 20 33 7 101 21
150 31 50 9 135 25 190 36 117 22 257 49 410 78 61 12 142 27 180 35 101 20
119 17 123 -20z m-320 -722 c4 -44 -50 -144 -102 -189 -99 -86 -250 -119 -606
-134 -129 -6 -287 -14 -350 -20 -63 -5 -214 -14 -335 -20 -121 -5 -314 -16
-430 -25 -115 -8 -295 -19 -400 -25 -104 -6 -242 -15 -306 -21 -133 -12 -231
-9 -236 7 -5 15 52 84 94 112 25 17 64 29 127 38 92 15 115 17 421 55 94 11
233 29 310 39 77 11 174 22 215 25 41 4 91 11 110 15 19 5 85 14 145 20 61 6
155 17 210 25 55 8 199 25 320 39 121 14 274 33 340 41 66 9 185 22 264 30 80
8 147 18 150 21 3 2 17 4 31 2 20 -2 26 -9 28 -35z m-434 -539 c22 -9 20 -29
-9 -77 -31 -54 -91 -105 -152 -130 -46 -19 -81 -21 -693 -28 -355 -4 -809 -8
-1010 -9 -201 -1 -410 -5 -464 -9 -98 -6 -126 1 -126 30 0 22 56 130 70 134 8
2 191 9 405 15 215 6 462 15 550 20 88 5 318 14 510 20 193 5 436 14 540 20
105 6 217 12 250 14 33 1 72 3 87 4 14 1 33 -1 42 -4z"/>
</g>
</svg>
